<?xml version="1.0" encoding="UTF-8" standalone="no"?>
<svg
   xmlns:dc="http://purl.org/dc/elements/1.1/"
   xmlns:cc="http://creativecommons.org/ns#"
   xmlns:rdf="http://www.w3.org/1999/02/22-rdf-syntax-ns#"
   xmlns:svg="http://www.w3.org/2000/svg"
   xmlns="http://www.w3.org/2000/svg"
   xmlns:xlink="http://www.w3.org/1999/xlink"
   version="1.1"
   id="svg2"
   viewBox="0 0 512.00001 512.00001"
   height="512"
   width="512">
  <defs
     id="defs4">
    <linearGradient
       id="linearGradient6027">
      <stop
         id="stop6029"
         offset="0"
         style="stop-color:#9f00f9;stop-opacity:1;" />
      <stop
         id="stop6031"
         offset="1"
         style="stop-color:#f1d9ff;stop-opacity:1" />
    </linearGradient>
    <marker
       style="overflow:visible"
       id="Arrow1Mstart"
       refX="0"
       refY="0"
       orient="auto">
      <path
         transform="matrix(0.4,0,0,0.4,4,0)"
         style="fill:#800080;fill-opacity:1;fill-rule:evenodd;stroke:#000080;stroke-width:1pt;stroke-opacity:1"
         d="M 0,0 5,-5 -12.5,0 5,5 0,0 Z"
         id="path4406" />
    </marker>
    <marker
       style="overflow:visible"
       id="Arrow1Send"
       refX="0"
       refY="0"
       orient="auto">
      <path
         transform="matrix(-0.2,0,0,-0.2,-1.2,0)"
         style="fill:#800080;fill-opacity:1;fill-rule:evenodd;stroke:#000080;stroke-width:1pt;stroke-opacity:1"
         d="M 0,0 5,-5 -12.5,0 5,5 0,0 Z"
         id="path4415" />
    </marker>
    <marker
       style="overflow:visible"
       id="marker4676"
       refX="0"
       refY="0"
       orient="auto">
      <path
         transform="matrix(0.8,0,0,0.8,10,0)"
         style="fill:#800080;fill-opacity:1;fill-rule:evenodd;stroke:#000080;stroke-width:1pt;stroke-opacity:1"
         d="M 0,0 5,-5 -12.5,0 5,5 0,0 Z"
         id="path4678" />
    </marker>
    <marker
       style="overflow:visible"
       id="Arrow1Lstart"
       refX="0"
       refY="0"
       orient="auto">
      <path
         transform="matrix(0.8,0,0,0.8,10,0)"
         style="fill:#800080;fill-opacity:1;fill-rule:evenodd;stroke:#000080;stroke-width:1pt;stroke-opacity:1"
         d="M 0,0 5,-5 -12.5,0 5,5 0,0 Z"
         id="path4400" />
    </marker>
    <linearGradient
       gradientUnits="userSpaceOnUse"
       y2="625.83521"
       x2="431.15399"
       y1="967.96783"
       x1="75.950531"
       id="linearGradient6033"
       xlink:href="#linearGradient6027" />
  </defs>
  <metadata
     id="metadata7">
    <rdf:RDF>
      <cc:Work
         rdf:about="">
        <dc:format>image/svg+xml</dc:format>
        <dc:type
           rdf:resource="http://purl.org/dc/dcmitype/StillImage" />
        <dc:title></dc:title>
      </cc:Work>
    </rdf:RDF>
  </metadata>
  <g
     transform="translate(0,-540.36216)"
     id="layer1">
    <ellipse
       ry="248.18661"
       rx="248.18663"
       cy="796.36218"
       cx="256"
       id="path3576"
       style="fill:url(#linearGradient6033);fill-opacity:1;fill-rule:nonzero;stroke:#000000;stroke-width:8;stroke-miterlimit:4;stroke-dasharray:none;stroke-dashoffset:0;stroke-opacity:1;stroke-linecap:butt;stroke-linejoin:round" />
    <g
       transform="translate(4,-6)"
       id="g4328">
      <ellipse
         style="opacity:1;fill:#ffffff;fill-opacity:1;fill-rule:nonzero;stroke:none;stroke-width:8;stroke-linecap:butt;stroke-linejoin:round;stroke-miterlimit:4;stroke-dasharray:none;stroke-dashoffset:0;stroke-opacity:1"
         id="path4326"
         cx="222.89018"
         cy="840.64923"
         rx="74"
         ry="96.176918"
         transform="matrix(1,0,0.15596257,0.98776297,0,0)" />
      <ellipse
         style="opacity:1;fill:#ffffff;fill-opacity:1;fill-rule:nonzero;stroke:none;stroke-width:8;stroke-linecap:butt;stroke-linejoin:round;stroke-miterlimit:4;stroke-dasharray:none;stroke-dashoffset:0;stroke-opacity:1"
         id="path4324"
         cx="319"
         cy="652.36218"
         rx="42"
         ry="44" />
      <g
         id="g4315">
        <path
           style="opacity:0.25;fill:#e8dda2"
           d="m 260.15791,996.8123 c -2.0058,-2.5745 -4.15286,-7.08441 -5.4452,-11.43767 -2.66157,-8.96553 -3.63714,-9.59076 -13.33491,-8.54608 -10.54853,1.13631 -19.03361,0.76447 -32.6712,-1.43175 -13.85937,-2.23195 -18.0924,-2.40464 -21.03074,-0.85802 -2.83277,1.49105 -3.47717,2.6573 -3.49424,6.32394 -0.0226,4.85247 -3.4143,10.60228 -7.18296,12.17698 -6.50144,2.7164 -25.34662,0.8678 -39.99605,-3.92351 -4.92341,-1.61027 -10.61434,-2.65071 -16.1689,-2.95605 -5.4792,-0.30121 -11.83545,-1.45175 -17.61905,-3.18924 -4.976187,-1.49491 -12.368373,-3.17284 -16.427076,-3.72871 -8.310737,-1.13823 -13.500955,-3.83809 -16.995849,-8.84094 -1.209485,-1.73135 -5.111443,-6.33403 -8.671017,-10.22817 -6.384401,-6.98448 -10.287004,-14.36889 -10.287004,-19.46484 0,-2.70694 -3.392128,-13.18879 -5.787882,-17.88486 -2.548425,-4.99533 -3.257317,-10.6721 -1.794315,-14.36879 2.907107,-7.34561 7.051403,-9.54395 18.262946,-9.6876 11.000438,-0.14093 11.658563,-0.77504 11.725142,-11.29724 0.04018,-6.34967 0.478834,-8.64811 2.313319,-12.12116 1.94396,-3.6803 2.364839,-6.23647 2.979419,-18.09524 1.21765,-23.49543 2.529961,-22.30409 -24.673592,-22.39924 -25.975233,-0.0909 -27.78694,-0.74983 -27.78694,-10.1069 0,-7.29295 2.384787,-9.76306 19.485774,-20.18291 11.187771,-6.81686 13.794067,-7.99555 22.553884,-10.19996 15.998003,-4.02591 16.694905,-4.37355 20.756162,-10.35402 2.03809,-3.00122 5.349937,-8.64458 7.35966,-12.5408 2.009725,-3.89623 4.564199,-8.36734 5.676629,-9.93582 1.11242,-1.56847 4.04329,-6.49463 6.51303,-10.94701 5.89889,-10.63435 9.21862,-15.36702 16.75814,-23.89081 3.43538,-3.88386 8.88151,-10.29135 12.1025,-14.23885 3.221,-3.94751 10.33366,-11.12536 15.80591,-15.95078 5.47225,-4.82542 11.28343,-10.7873 12.91374,-13.24862 l 2.96419,-4.47511 -0.25433,-13.38363 -0.25434,-13.38362 3.33333,-5.53472 c 1.83333,-3.0441 4.23216,-7.02793 5.33073,-8.85296 1.09857,-1.82503 2.73256,-6.36409 3.63109,-10.0868 1.92135,-7.96042 6.00591,-16.44756 10.23216,-21.261 4.81367,-5.48247 18.59006,-14.71176 27.05222,-18.12323 4.28303,-1.72669 10.95122,-5.2561 14.81819,-7.84314 14.13053,-9.45347 15.54834,-9.70992 53.73551,-9.71952 31.62259,-0.008 37.15358,0.70526 43.29533,5.58288 4.46125,3.54302 16.0819,10.32778 19.04762,11.12103 6.96309,1.86244 22.72016,12.53352 28.14023,19.05726 7.3858,8.88976 18.88426,33.63081 23.66697,50.92387 3.32784,12.0326 8.05373,14.83367 55.81184,33.08014 19.32882,7.38477 26.22772,13.70062 23.88562,21.86701 -1.29622,4.51968 -5.52285,9.55105 -10.46322,12.45541 l -4.37478,2.57186 -18.57143,-0.30532 c -11.87356,-0.1952 -20.28883,0.0953 -23.33333,0.80555 -2.61905,0.61098 -10.01523,1.07312 -16.43596,1.02699 -10.34295,-0.0743 -11.88434,0.12641 -13.51831,1.76038 -2.44813,2.44813 -3.39608,7.97889 -2.10482,12.28046 1.02715,3.42174 14.81236,25.38106 18.38368,29.28449 2.02048,2.20838 3.26687,4.41413 11.51918,20.38554 10.52557,20.37107 11.91761,23.36461 14.84723,31.92873 3.71441,10.85826 5.19963,22.31626 3.98946,30.77745 -1.53595,10.73894 -5.51688,28.9999 -7.18566,32.96144 -2.74363,6.51311 -19.37097,24.84914 -28.35552,31.26942 -20.81179,14.87195 -24.78807,18.48436 -24.27629,22.05475 0.42012,2.931 4.14968,2.2777 21.95228,-3.84527 28.19471,-9.69722 33.29445,-10.46845 40.44958,-6.11715 5.98721,3.64104 6.33561,13.18879 0.72459,19.8571 -1.28743,1.53002 -5.24029,4.48661 -8.78416,6.57022 -25.50249,14.99411 -26.31706,15.3924 -37.40686,18.29005 -6.01771,1.57237 -13.29842,3.68993 -16.17937,4.7057 -2.88096,1.01577 -9.65706,2.77202 -15.05802,3.90278 -5.40095,1.13075 -11.61524,2.69607 -13.80953,3.47848 -2.19427,0.78241 -7.84674,2.23765 -12.56102,3.23375 -11.42417,2.4141 -13.27386,3.0101 -20.21094,6.5125 l -5.92522,2.9915 -25.13785,0 -25.13785,0 -3.31155,-4.2506 z m 122.2955,-83.46599 c 5.26229,-2.68462 19.08009,-15.36488 22.99734,-21.1041 4.30407,-6.30595 12.99759,-31.67432 13.00018,-37.9355 0.002,-4.52757 -4.41929,-27.74261 -7.51002,-39.43431 -0.96929,-3.66666 -2.4988,-9.99178 -3.39889,-14.05579 -1.27559,-5.75943 -2.56314,-8.64785 -5.83778,-13.09614 -2.3107,-3.13884 -6.11858,-9.72866 -8.46197,-14.64403 -3.45806,-7.25342 -5.65616,-10.35134 -11.66798,-16.44443 -16.02168,-16.23825 -29.89606,-18.47604 -41.88688,-6.7559 -3.93805,3.84916 -5.16046,5.79825 -5.95238,9.4908 -1.49855,6.98754 -1.20545,15.94748 0.80979,24.75432 0.9935,4.34172 2.08619,12.17975 2.42821,17.41784 1.27891,19.58664 7.61522,35.6472 25.36482,64.2919 12.07407,19.48542 13.76778,27.08985 8.66447,38.90201 -3.2645,7.55601 -3.7006,10.16369 -1.83529,10.97409 2.03274,0.88313 9.54385,-0.45146 13.28638,-2.36076 z M 310.63594,666.77004 c 0.97966,-1.05154 2.51496,-5.32648 3.41178,-9.49987 1.88206,-8.75829 4.13684,-11.98378 11.80729,-16.89051 6.12991,-3.92125 7.01313,-5.66113 4.07961,-8.03654 -2.40745,-1.94944 -7.98731,-2.31371 -12.0105,-0.78411 -4.78377,1.8188 -14.52447,11.31685 -17.18701,16.75889 -3.48234,7.11766 -2.9477,13.78784 1.41783,17.68843 3.53782,3.16103 6.03782,3.38616 8.481,0.76371 z"
           id="path4306" />
        <path
           style="fill:#a3a3a3"
           d="m 270.31811,992.6061 c -5.49396,-2.4956 -9.00822,-7.00312 -9.00822,-11.55431 0,-2.02094 -0.43639,-4.82224 -0.96976,-6.2251 -0.81102,-2.13315 -1.3956,-2.46436 -3.57143,-2.02344 -1.43091,0.28997 -8.38738,1.25026 -15.45881,2.13398 -12.63238,1.57867 -13.09855,1.5701 -26.66666,-0.49023 -7.59524,-1.15333 -18.69781,-2.48606 -24.67238,-2.96162 -5.97457,-0.47556 -11.5542,-1.08408 -12.39918,-1.35226 -1.33976,-0.42522 -1.49077,0.41437 -1.18031,6.56237 0.3457,6.84581 0.27849,7.10077 -2.32084,8.80391 -3.63038,2.37873 -10.47166,2.18726 -24.66538,-0.6903 -9.61481,-1.94926 -13.6202,-2.27254 -25.2381,-2.03703 -13.22941,0.26818 -14.12959,0.16332 -21.42857,-2.49626 -4.190473,-1.5269 -10.814476,-3.08053 -14.720005,-3.45251 -3.905529,-0.37199 -8.216507,-1.25321 -9.579951,-1.95828 -4.031052,-2.08453 -20.785829,-20.83476 -22.911502,-25.64019 -2.899025,-6.55373 -3.923982,-14.27006 -2.459936,-18.51949 1.058863,-3.07337 0.993636,-3.8659 -0.521737,-6.33938 -3.158922,-5.15618 -3.881444,-9.59951 -2.153182,-13.24155 2.084983,-4.39377 6.326088,-6.0118 13.867869,-5.29074 5.580727,0.53357 5.852882,0.45802 6.734354,-1.86928 0.505227,-1.33393 1.745447,-3.30824 2.756044,-4.38734 1.552153,-1.65739 1.808269,-3.21007 1.649507,-10 -0.161085,-6.88933 0.179716,-8.88451 2.384824,-13.96167 2.44377,-5.62666 2.572767,-6.69283 2.572767,-21.26373 l 0,-15.34006 -2.783883,-2.78387 -2.783882,-2.78389 -19.151468,0 c -20.359912,0 -24.549705,-0.7266 -26.632677,-4.61866 -3.428729,-6.40664 1.364918,-13.75927 13.732864,-21.06384 12.860027,-7.5952 17.970604,-9.88971 27.684017,-12.42933 5.797639,-1.51582 11.652118,-3.17843 13.009955,-3.69468 3.405233,-1.29467 6.832572,-5.82398 14.06793,-18.59111 3.404762,-6.00787 9.391852,-16.19759 13.304652,-22.64384 3.91279,-6.44624 7.76993,-12.84212 8.57142,-14.21308 2.79276,-4.77703 18.70076,-22.36872 33.05632,-36.55497 7.9509,-7.85715 15.20385,-15.78572 16.11766,-17.61905 1.32935,-2.66702 1.67602,-5.9986 1.73428,-16.66667 l 0.0728,-13.33333 4.91287,-8.09524 c 2.70207,-4.45238 5.65213,-10.66666 6.55567,-13.80952 3.1747,-11.04273 7.3516,-19.51795 11.89214,-24.12995 6.08466,-6.18041 18.15248,-13.84641 26.63932,-16.92246 3.92857,-1.42391 9.07142,-3.95681 11.42857,-5.62867 14.64338,-10.38616 16.7459,-10.81377 54.18053,-11.01917 34.745,-0.19063 35.85132,-0.01 46.07848,7.53994 3.33829,2.46428 7.9671,5.27907 10.28625,6.25511 24.71244,10.40045 33.14693,17.53559 42.29768,35.78167 10.26753,20.47288 13.53816,31.41371 10.87711,36.38593 -2.7716,5.17877 7.45477,17.85365 18.66089,23.12888 3.14286,1.47949 8.92857,4.25665 12.85714,6.17148 3.92857,1.91483 10.35714,4.46762 14.28571,5.67288 19.82071,6.08086 27.83071,10.13126 29.58462,14.95999 0.99183,2.73065 -0.82885,6.04526 -4.78503,8.71134 -3.09775,2.08757 -3.98957,2.18823 -17.12898,1.93334 -9.58201,-0.18588 -17.09519,0.23438 -24.33727,1.36133 -5.76191,0.89661 -15.10945,1.90393 -20.77232,2.23846 -8.88365,0.5248 -10.64747,0.91075 -12.85715,2.81329 -2.32698,2.00356 -2.56066,2.81459 -2.55729,8.87556 0.004,6.28254 0.33048,7.29811 5.62188,17.46125 3.09,5.93491 7.97508,13.57071 10.85575,16.96844 4.77917,5.63702 11.61389,17.79432 11.61389,20.65828 0,1.29735 5.15967,10.41814 7.18962,12.70916 0.70657,0.79744 3.02751,4.77837 5.15766,8.8465 6.91798,13.21196 11.11038,31.95646 9.62564,43.03693 -1.61846,12.0785 -5.05768,28.7401 -6.71118,32.51292 -4.24236,9.67991 -18.47546,25.38122 -30.97602,34.17137 -9.44873,6.64415 -18.30233,13.46535 -23.62696,18.20325 -5.21929,4.64414 -14.72161,9.43818 -21.65475,10.92507 -3.60022,0.77211 -4.71829,1.43123 -4.71829,2.78153 0,3.94948 4.87357,3.95962 22.70928,0.0472 7.51393,-1.64823 18.4425,-3.36687 24.28572,-3.81919 5.84323,-0.45234 11.48119,-1.15685 12.52881,-1.5656 1.04761,-0.40875 5.22218,-3.00281 9.2768,-5.76458 8.28284,-5.64177 13.12239,-7.07382 16.8448,-4.98449 5.62998,3.16003 5.40537,9.11964 -0.52804,14.01047 -3.91961,3.23086 -35.36643,19.23638 -37.74848,19.21287 -2.58506,-0.0255 -14.31707,3.39579 -22.60661,6.59257 -4.10361,1.58253 -11.03243,3.50141 -15.3974,4.2642 -4.36498,0.76279 -10.07917,1.87036 -12.69821,2.46128 -2.61905,0.59091 -9.04762,1.85609 -14.28572,2.81151 -5.23809,0.95542 -12.95238,2.59264 -17.14285,3.63827 -19.47796,4.86023 -39.06669,6.22483 -45.75369,3.18743 z M 134.64323,963.00778 c 0,-1.19258 -1.48898,-2.73721 -4.13129,-4.28572 -6.80102,-3.98565 -11.15547,-2.52766 -6.1068,2.04474 4.86606,4.40701 10.23809,5.58288 10.23809,2.24098 z m 237.64546,-43.47226 c 10.27368,-3.35535 11.55441,-4.10119 21.15591,-12.32031 10.50455,-8.99215 15.62566,-15.09299 18.09168,-21.55286 1.06569,-2.79162 3.51066,-9.18899 5.43327,-14.2164 5.19044,-13.5724 5.22293,-16.13529 0.49402,-38.9545 -2.2253,-10.73809 -4.43708,-21.88095 -4.91506,-24.7619 -2.32385,-14.00664 -2.53479,-14.55614 -8.40882,-21.90476 -4.21221,-5.26964 -6.20689,-8.7959 -7.60602,-13.44616 -1.6994,-5.64825 -2.68293,-7.07314 -9.46396,-13.71101 -8.38243,-8.20548 -10.30641,-9.65952 -18.61697,-14.06961 -5.07765,-2.69453 -6.56312,-3.0283 -13.33333,-2.99593 -5.9379,0.0284 -8.50032,0.49653 -11.61306,2.12159 -5.63079,2.93965 -10.59537,8.39001 -11.80965,12.96525 -1.65947,6.25261 -4.42305,14.11099 -6.2181,17.68144 -1.15863,2.3046 -1.78974,6.38769 -2.08138,13.46601 l -0.41855,10.15852 3.92751,8.52613 c 2.16014,4.68938 3.94258,9.55824 3.96098,10.81971 0.0908,6.22346 2.71545,14.47239 5.5313,17.384 1.5983,1.65264 4.37278,6.22741 6.16552,10.16613 1.79275,3.93872 3.98958,7.76719 4.88185,8.50771 0.89228,0.74053 2.5044,3.08937 3.58251,5.21964 1.0781,2.13029 4.0993,7.38645 6.71378,11.68038 4.56229,7.49297 4.77309,8.14913 5.23815,16.30567 0.50213,8.80663 -0.21299,17.81479 -1.59129,20.04492 -1.09406,1.77024 -4.841,0.45957 -4.841,-1.69335 0,-2.34544 -3.05522,-4.94774 -4.65099,-3.96151 -0.70078,0.43312 -2.08385,0.57574 -3.07348,0.31694 -2.46832,-0.64548 -2.38321,2.22926 0.10543,3.56114 1.19079,0.63729 1.90476,1.99411 1.90476,3.6198 0,5.73238 6.81756,13.52306 11.83393,13.52306 1.11564,0 5.44511,-1.11588 9.62106,-2.47974 z M 312.262,667.38743 c 0.80973,-1.23579 2.0496,-5.00647 2.75529,-8.3793 2.17208,-10.38139 4.93789,-13.94276 14.59408,-18.79195 7.21142,-3.62145 7.16419,-7.14609 -0.13609,-10.15758 -6.92829,-2.85805 -12.85535,-0.83686 -22.13835,7.54939 -6.44013,5.81801 -9.83656,12.59269 -9.83656,19.62046 0,7.98553 3.45045,12.40587 9.68388,12.40587 2.7376,0 3.95994,-0.54088 5.07775,-2.24689 z"
           id="path4304" />
        <path
           style="fill:#dbc335"
           d="m 270.35751,992.5962 c -7.33582,-3.38574 -9.26844,-7.32954 -10.29974,-21.01821 -0.25306,-3.35883 -4.76671,-4.02299 -15.37853,-2.26289 -10.00941,1.66018 -19.07743,1.78706 -26.88125,0.37612 -8.08783,-1.46228 -35.46153,-4.79694 -39.34524,-4.79302 -5.30746,0.006 -6.39594,1.18813 -3.9523,4.2947 1.60628,2.04206 2.04754,3.90472 2.04754,8.64312 0,5.32066 -0.27159,6.21804 -2.28022,7.53414 -1.25412,0.82173 -3.71841,1.72635 -5.47619,2.01026 -3.57182,0.57692 -27.05378,-3.3484 -40.81501,-6.82275 -2.88096,-0.72737 -7.59524,-1.81949 -10.47619,-2.42695 -2.88096,-0.60746 -8.22844,-2.39737 -11.88331,-3.97758 -4.52437,-1.95615 -8.475778,-2.94166 -12.380948,-3.08787 -10.274189,-0.38467 -13.221134,-1.75498 -22.09449,-10.27375 -10.318381,-9.90606 -12.452805,-13.52224 -13.288457,-22.51353 -0.530671,-5.70981 -1.228901,-7.84941 -3.816249,-11.69419 -4.50636,-6.69642 -5.600617,-11.33774 -3.644769,-15.45939 2.660181,-5.60592 8.351764,-6.61166 21.870127,-3.86461 2.311237,0.46967 3.448541,0.0344 5.952381,-2.27829 3.021982,-2.79122 3.095238,-3.04922 3.095238,-10.90088 0,-7.02209 0.378944,-8.85178 2.987971,-14.42714 2.833206,-6.05442 2.951326,-6.76292 2.280453,-13.67836 -0.389135,-4.01126 -0.983721,-12.29609 -1.321304,-18.41074 -0.944795,-17.11308 -1.984044,-17.76776 -28.890906,-18.19973 -15.786175,-0.25343 -18.022877,-0.48664 -19.761904,-2.06043 -1.078535,-0.97606 -1.95815,-2.88681 -1.954699,-4.2461 0.02043,-8.0446 14.405688,-17.04431 38.088961,-23.82923 7.595237,-2.17592 15.365944,-4.98308 17.268235,-6.23814 2.642589,-1.74347 4.734439,-4.77594 8.865211,-12.85155 2.973579,-5.8133 8.326569,-14.94793 11.895529,-20.29917 3.56897,-5.35124 7.58758,-11.87239 8.93027,-14.49144 1.34268,-2.61905 3.86184,-6.75867 5.59813,-9.19916 5.79897,-8.15088 20.5624,-25.0312 26.10529,-29.84846 13.33564,-11.58985 16.66635,-15.18904 19.63346,-21.2161 2.77166,-5.63005 3.06123,-7.12887 3.60207,-18.64425 l 0.58812,-12.52204 5.28899,-9.0469 c 2.90895,-4.97579 6.03251,-11.83261 6.94124,-15.23737 2.87693,-10.77907 6.21639,-16.91969 12.22843,-22.48577 5.64588,-5.22711 18.06956,-11.95621 24.48359,-13.2612 4.18056,-0.85057 11.99176,-4.73661 15.61196,-7.7669 8.83643,-7.39654 16.5262,-8.74507 51.53089,-9.0368 28.96952,-0.24142 30.38069,0.026 38.40968,7.27975 2.55713,2.31021 7.13346,4.75102 13.35058,7.12061 22.42574,8.54733 30.95646,16.66663 40.08344,38.15031 1.66899,3.92857 4.06645,9.52388 5.32769,12.43403 1.26123,2.91014 2.77563,7.62443 3.36532,10.47619 2.67774,12.94968 10.84248,23.54048 22.32043,28.95274 3.14285,1.48197 8.92857,4.26116 12.85714,6.17599 3.92857,1.91483 10.35714,4.46762 14.28571,5.67288 19.82071,6.08086 27.83071,10.13126 29.58462,14.95999 0.9883,2.72091 -0.82548,6.04299 -4.73933,8.68054 -3.69836,2.49233 -6.30072,2.61868 -23.41672,1.13699 -27.57736,-2.38731 -40.13434,-1.76468 -50.82451,2.5201 -4.94832,1.98336 -6.40892,4.79215 -7.37,14.17285 -1.02744,10.02842 -3.17019,10.66661 -16.0912,4.79261 -3.57823,-1.6267 -8.02834,-2.77075 -11.90476,-3.06055 -5.3379,-0.39905 -7.2701,-0.0459 -14.02962,2.56419 -10.68844,4.12718 -11.47426,5.14009 -23.01787,29.66995 -7.46812,15.86954 -9.17413,28.4326 -6.47163,47.6571 0.83606,5.94739 1.74859,14.11658 2.02785,18.15375 0.27925,4.03717 1.34157,10.46574 2.36071,14.28571 1.01915,3.81997 2.55053,10.80255 3.40306,15.51683 0.85254,4.71429 2.22895,10.71429 3.05869,13.33333 1.86579,5.88927 8.41558,19.12101 15.09264,30.48982 8.72768,14.86033 22.60909,25.91254 29.41813,23.42238 1.53689,-0.56207 3.01178,-0.80449 3.27753,-0.53874 0.26576,0.26575 -1.84884,2.86525 -4.6991,5.77666 -3.52843,3.60414 -7.73981,6.56004 -13.19611,9.26216 -6.71346,3.32469 -7.60206,4.01757 -5.47619,4.27002 1.73893,0.20651 2.53763,0.86327 2.53763,2.08666 0,3.96661 4.85185,3.98005 22.70928,0.0629 7.51393,-1.64823 18.4425,-3.36687 24.28571,-3.81919 5.84323,-0.45234 11.48119,-1.15685 12.52881,-1.5656 1.04762,-0.40874 5.22218,-3.00281 9.27681,-5.76458 8.28284,-5.64176 13.12239,-7.07382 16.8448,-4.98449 5.62998,3.16003 5.40537,9.11964 -0.52805,14.01047 -3.91961,3.23086 -35.36642,19.23638 -37.74847,19.21287 -2.58507,-0.0255 -14.31708,3.39579 -22.60661,6.59257 -4.10361,1.58253 -11.03244,3.50141 -15.39741,4.2642 -4.36497,0.76279 -10.07916,1.87037 -12.69821,2.46128 -2.61904,0.59091 -9.04761,1.8561 -14.28571,2.81151 -5.23809,0.95542 -12.95238,2.59264 -17.14286,3.63827 -19.50383,4.86659 -39.10265,6.22889 -45.71428,3.17739 z M 134.64323,963.00778 c 0,-1.19258 -1.48898,-2.73721 -4.13129,-4.28572 -6.80102,-3.98565 -11.15547,-2.52766 -6.1068,2.04474 4.86606,4.40701 10.23809,5.58288 10.23809,2.24098 z M 314.54464,671.77717 c 2.0491,-2.05459 2.88629,-4.22683 3.88453,-10.07917 1.96876,-11.54206 5.35951,-15.26286 16.56997,-18.18281 6.92968,-1.80496 8.21551,-2.84462 8.21551,-6.64272 0,-7.09885 -7.07218,-11.45914 -18.64919,-11.49802 -7.00385,-0.0235 -8.07566,0.23139 -11.90476,2.8313 -6.65931,4.52159 -14.27253,12.8712 -16.9335,18.57143 -6.10195,13.07134 0.25623,27.61904 12.07111,27.61904 3.24199,0 4.69805,-0.56526 6.74633,-2.61905 z m 83.9081,241.50692 c 0,-1.38278 10.00845,-11.26883 11.40834,-11.26883 1.81085,0 0.98584,1.88463 -2.52724,5.7732 -3.92546,4.34501 -8.8811,7.41157 -8.8811,5.49563 z m 18.09524,-20.6448 c 0,-2.56058 3.256,-12.01835 5.11346,-14.85319 1.74118,-2.65738 3.39545,-3.07145 5.17225,-1.29465 2.73106,2.73106 -0.22034,10.91508 -5.55512,15.40401 -3.50688,2.95084 -4.73059,3.14325 -4.73059,0.74383 z M 428.951,849.49313 c -1.86643,-4.27535 -3.55781,-14.93596 -2.94754,-18.57798 l 0.61359,-3.66179 1.79129,2.69478 c 3.80607,5.72579 5.60365,18.39601 2.92529,20.61884 -1.15388,0.95763 -1.57952,0.76579 -2.38263,-1.07385 z"
           id="path4302" />
        <path
           style="fill:#927336"
           d="m 114.16704,977.3152 c -3.14285,-0.93896 -7.83555,-2.6806 -10.42821,-3.87033 -2.92448,-1.34199 -6.901309,-2.24498 -10.476183,-2.37874 -10.30243,-0.38549 -13.242882,-1.75125 -22.121015,-10.27461 -10.236548,-9.82749 -12.455423,-13.55041 -13.264494,-22.25569 -0.373003,-4.01338 -0.254576,-6.95986 0.293347,-7.2985 1.860183,-1.14966 8.623228,3.37799 17.939883,12.0102 10.704689,9.91827 20.98802,16.75171 31.979732,21.25108 8.11234,3.32071 17.57328,8.46626 18.58931,10.11021 0.78826,1.27545 -3.06833,4.57569 -5.23692,4.48144 -0.85864,-0.0373 -4.13259,-0.83609 -7.27545,-1.77506 z m 112.85714,-6.46899 c -1.83333,-0.1576 -7.19048,-0.89201 -11.90476,-1.63202 -4.71429,-0.74001 -15.0755,-2.09869 -23.02493,-3.01928 -12.29045,-1.4233 -15.02382,-1.48557 -18.26435,-0.4161 -2.45739,0.811 -6.28765,1.08252 -10.78459,0.76447 -6.64538,-0.46999 -8.07241,-1.05165 -30.30708,-12.35319 -27.22883,-13.84001 -31.08803,-16.09824 -41.840852,-24.48337 -13.384374,-10.43724 -17.194607,-14.36861 -17.838634,-18.40575 -0.431628,-2.7057 -0.244688,-3.57143 0.771201,-3.57143 0.737514,0 2.722161,-1.26155 4.410327,-2.80346 2.993936,-2.73453 3.069391,-3.00115 3.069391,-10.84545 0,-7.02209 0.378944,-8.85178 2.987971,-14.42714 2.833206,-6.05442 2.951326,-6.76292 2.280453,-13.67836 -0.389135,-4.01126 -0.983721,-12.29609 -1.321304,-18.41074 -0.944795,-17.11308 -1.984044,-17.76776 -28.890906,-18.19973 -15.786175,-0.25343 -18.022877,-0.48664 -19.761904,-2.06043 -1.078535,-0.97606 -1.95815,-2.88681 -1.954699,-4.2461 0.02043,-8.0446 14.405688,-17.04431 38.088961,-23.82923 7.595237,-2.17592 15.365944,-4.98308 17.268235,-6.23814 2.642589,-1.74347 4.734439,-4.77594 8.865211,-12.85155 2.973579,-5.8133 8.326569,-14.94793 11.895529,-20.29917 3.56897,-5.35124 7.58758,-11.87239 8.93027,-14.49144 1.34268,-2.61905 3.86184,-6.75867 5.59813,-9.19916 5.79897,-8.15088 20.5624,-25.0312 26.10529,-29.84846 13.33564,-11.58985 16.66635,-15.18904 19.63346,-21.2161 2.77166,-5.63005 3.06123,-7.12887 3.60207,-18.64425 l 0.58812,-12.52204 5.28899,-9.0469 c 2.90895,-4.97579 6.03251,-11.83261 6.94124,-15.23737 2.87693,-10.77907 6.21639,-16.91969 12.22843,-22.48577 5.64588,-5.22711 18.06956,-11.95621 24.48359,-13.2612 4.18056,-0.85057 11.99176,-4.73661 15.61196,-7.7669 8.83643,-7.39654 16.5262,-8.74507 51.53089,-9.0368 28.96952,-0.24142 30.38069,0.026 38.40968,7.27975 2.55713,2.31021 7.13346,4.75102 13.35058,7.12061 22.42574,8.54733 30.95646,16.66663 40.08344,38.15031 1.66899,3.92857 4.0863,9.56811 5.37179,12.5323 1.28551,2.9642 2.81719,7.77915 3.40376,10.69987 1.30938,6.51992 0.74668,7.37571 -6.6584,10.12648 -2.96419,1.10111 -7.96085,3.66335 -11.10371,5.69386 -8.19683,5.29573 -10.36534,5.99465 -20.51732,6.61271 -7.53734,0.45888 -9.56588,0.92864 -11.88396,2.75203 -7.57255,5.95658 -8.19195,12.31574 -2.0708,21.26041 4.88003,7.13109 8.19997,9.27041 16.14888,10.40615 3.26824,0.46697 8.94225,1.48053 12.60891,2.25237 4.11557,0.86632 12.16368,1.41672 21.03175,1.43833 7.9008,0.0192 14.64707,0.31701 14.99174,0.66167 1.30001,1.30001 -1.62671,3.18292 -4.94962,3.18434 -4.28038,0.002 -9.39674,2.52739 -11.81934,5.83429 -1.10629,1.5101 -2.27706,5.60846 -2.95239,10.33501 -1.65297,11.56885 -3.13728,12.16971 -15.80281,6.39714 -9.52044,-4.33914 -16.54355,-4.52735 -26.43371,-0.70841 -10.68844,4.12718 -11.47426,5.14009 -23.01787,29.66995 -7.46812,15.86954 -9.17413,28.4326 -6.47163,47.6571 0.83606,5.94739 1.74859,14.11658 2.02785,18.15375 0.27925,4.03717 1.34157,10.46574 2.36071,14.28571 1.01915,3.81997 2.55053,10.80255 3.40306,15.51683 0.85254,4.71429 2.22895,10.71429 3.05869,13.33333 1.86579,5.88927 8.41558,19.12101 15.09264,30.48982 8.72768,14.86033 22.60909,25.91254 29.41813,23.42238 1.53689,-0.56207 3.01178,-0.80449 3.27753,-0.53874 0.26576,0.26575 -1.84884,2.87776 -4.6991,5.80445 -4.20694,4.31977 -7.51248,6.43949 -17.56324,11.26265 -6.80953,3.26775 -14.52381,6.63228 -17.14286,7.47672 -36.13453,11.65059 -45.97524,13.89767 -61.84904,14.12295 -5.26875,0.0748 -10.22238,-0.10131 -11.0081,-0.39128 -3.76077,-1.38792 -6.57266,-1.42242 -14.62515,-0.17944 -11.49336,1.77412 -13.79501,1.98764 -17.7558,1.64716 z m 87.52046,-299.06904 c 2.0491,-2.05459 2.88629,-4.22683 3.88453,-10.07917 1.96876,-11.54206 5.35951,-15.26286 16.56997,-18.18281 6.92968,-1.80496 8.21551,-2.84462 8.21551,-6.64272 0,-7.09885 -7.07218,-11.45914 -18.64919,-11.49802 -7.00385,-0.0235 -8.07566,0.23139 -11.90476,2.8313 -6.65931,4.52159 -14.27253,12.8712 -16.9335,18.57143 -6.10195,13.07134 0.25623,27.61904 12.07111,27.61904 3.24199,0 4.69805,-0.56526 6.74633,-2.61905 z m 83.9081,241.50692 c 0,-1.38278 10.00845,-11.26883 11.40834,-11.26883 1.81085,0 0.98584,1.88463 -2.52724,5.7732 -3.92546,4.34501 -8.8811,7.41157 -8.8811,5.49563 z m 18.09524,-20.6448 c 0,-2.56058 3.256,-12.01835 5.11346,-14.85319 1.74118,-2.65738 3.39545,-3.07145 5.17225,-1.29465 2.73106,2.73106 -0.22034,10.91508 -5.55512,15.40401 -3.50688,2.95084 -4.73059,3.14325 -4.73059,0.74383 z M 428.951,849.49313 c -1.86643,-4.27535 -3.55781,-14.93596 -2.94754,-18.57798 l 0.61359,-3.66179 1.79129,2.69478 c 3.80607,5.72579 5.60365,18.39601 2.92529,20.61884 -1.15388,0.95763 -1.57952,0.76579 -2.38263,-1.07385 z"
           id="path4300" />
        <path
           style="fill:#555454"
           d="m 88.45276,971.03899 c -0.52381,-0.19234 -2.804426,-0.82613 -5.068036,-1.40841 -3.087855,-0.79433 -6.038803,-2.88821 -11.816579,-8.38464 -8.660348,-8.23863 -13.115384,-14.51074 -13.115384,-18.46476 0,-2.30127 0.375449,-2.67069 2.71425,-2.67069 3.241904,0 8.682224,3.73221 17.76194,12.18519 3.666666,3.41357 8.70238,8.09807 11.190475,10.40999 2.488095,2.31194 4.523809,4.98509 4.523809,5.94036 0,2.29957 -3.139609,3.51319 -6.190475,2.39296 z m 138.57142,-0.19633 c -1.83333,-0.15955 -7.40476,-0.91142 -12.38095,-1.67082 -4.97619,-0.7594 -14.819,-2.08333 -21.87291,-2.94207 -7.05392,-0.85875 -13.71331,-1.89897 -14.79865,-2.31162 -1.08535,-0.41265 -5.38539,-1.05244 -9.55566,-1.42176 -8.12868,-0.71988 -15.39264,-3.3964 -36.47978,-13.44154 -22.22231,-10.58589 -42.657659,-24.13866 -51.340613,-34.04921 -3.609058,-4.11932 -4.050074,-8.22602 -1.190476,-11.08562 1.601976,-1.60198 1.904762,-3.1746 1.904762,-9.89308 0,-6.9619 0.383917,-8.80871 2.987971,-14.37345 2.833206,-6.05442 2.951326,-6.76292 2.280453,-13.67836 -0.389135,-4.01126 -0.983721,-12.29609 -1.321304,-18.41074 -0.944795,-17.11308 -1.984044,-17.76776 -28.890906,-18.19973 -15.786175,-0.25343 -18.022877,-0.48664 -19.761904,-2.06043 -1.078535,-0.97606 -1.95815,-2.88681 -1.954699,-4.2461 0.02043,-8.0446 14.405688,-17.04431 38.088961,-23.82923 7.595237,-2.17592 15.365944,-4.98308 17.268235,-6.23814 2.642589,-1.74347 4.734439,-4.77594 8.865211,-12.85155 2.973579,-5.8133 8.326569,-14.94793 11.895529,-20.29917 3.56897,-5.35124 7.58758,-11.87239 8.93027,-14.49144 1.34268,-2.61905 3.86184,-6.75867 5.59813,-9.19916 5.79897,-8.15088 20.5624,-25.0312 26.10529,-29.84846 13.33564,-11.58985 16.66635,-15.18904 19.63346,-21.2161 2.77166,-5.63005 3.06123,-7.12887 3.60207,-18.64425 l 0.58812,-12.52204 5.28899,-9.0469 c 2.90895,-4.97579 6.03251,-11.83261 6.94124,-15.23737 2.87693,-10.77907 6.21639,-16.91969 12.22843,-22.48577 5.64588,-5.22711 18.06956,-11.95621 24.48359,-13.2612 4.18056,-0.85057 11.99176,-4.73661 15.61196,-7.7669 8.83643,-7.39654 16.5262,-8.74507 51.53089,-9.0368 28.96952,-0.24142 30.38069,0.026 38.40968,7.27975 2.55713,2.31021 7.13346,4.75102 13.35058,7.12061 23.8471,9.08906 31.52933,17.09017 43.03084,44.81698 5.94982,14.34326 6.1236,15.0738 4.12383,17.33573 -0.97464,1.10242 -5.20065,3.66611 -9.39112,5.69709 -4.19048,2.03099 -9.69537,5.05196 -12.23308,6.71326 -4.23846,2.7747 -5.45794,3.07031 -14.98191,3.63184 -9.21691,0.54343 -10.86741,0.92012 -14.86766,3.39329 -6.21856,3.84464 -10.15145,11.23171 -9.60579,18.04237 0.52231,6.51921 3.81695,12.93515 9.53023,18.55902 5.24246,5.16042 10.39624,7.17987 25.43057,9.96469 12.56815,2.32801 16.2247,5.44322 17.61657,15.00849 1.3439,9.23569 -1.33383,10.38484 -12.42387,5.33171 -9.8935,-4.50794 -16.77186,-4.73026 -26.7804,-0.86561 -10.68844,4.12718 -11.47426,5.14009 -23.01787,29.66995 -7.46812,15.86954 -9.17413,28.4326 -6.47163,47.6571 0.83606,5.94739 1.74859,14.11658 2.02785,18.15375 0.27925,4.03717 1.34157,10.46574 2.36071,14.28571 1.01915,3.81997 2.55053,10.80255 3.40306,15.51683 0.85254,4.71429 2.22895,10.71429 3.05869,13.33333 1.86579,5.88927 8.41558,19.12101 15.09264,30.48982 8.72768,14.86033 22.60909,25.91254 29.41813,23.42238 1.53689,-0.56207 3.01689,-0.79938 3.28889,-0.52738 0.272,0.272 -2.09519,3.08429 -5.26043,6.24952 -5.7366,5.7366 -5.79004,5.76365 -16.73433,8.47109 -6.03865,1.49386 -12.61385,3.39905 -14.61157,4.23374 -1.99772,0.83471 -7.51869,2.52812 -12.26884,3.76316 -4.75014,1.23504 -12.34697,3.5555 -16.88184,5.15656 -10.15104,3.58392 -15.14568,4.49305 -34.98532,6.3681 -8.58631,0.81149 -15.89262,1.6492 -16.23623,1.86156 -2.02419,1.25102 -23.15332,4.01817 -27.67609,3.62457 z m 87.52046,-299.06549 c 2.0491,-2.05459 2.88629,-4.22683 3.88453,-10.07917 1.96876,-11.54206 5.35951,-15.26286 16.56997,-18.18281 6.92968,-1.80496 8.21551,-2.84462 8.21551,-6.64272 0,-7.09885 -7.07218,-11.45914 -18.64919,-11.49802 -7.00385,-0.0235 -8.07566,0.23139 -11.90476,2.8313 -6.65931,4.52159 -14.27253,12.8712 -16.9335,18.57143 -6.10195,13.07134 0.25623,27.61904 12.07111,27.61904 3.24199,0 4.69805,-0.56526 6.74633,-2.61905 z m 83.9081,241.50692 c 0,-1.38278 10.00845,-11.26883 11.40834,-11.26883 1.81085,0 0.98584,1.88463 -2.52724,5.7732 -3.92546,4.34501 -8.8811,7.41157 -8.8811,5.49563 z m 18.09524,-20.6448 c 0,-2.56058 3.256,-12.01835 5.11346,-14.85319 1.74118,-2.65738 3.39545,-3.07145 5.17225,-1.29465 2.73106,2.73106 -0.22034,10.91508 -5.55512,15.40401 -3.50688,2.95084 -4.73059,3.14325 -4.73059,0.74383 z M 428.951,849.49313 c -1.86643,-4.27535 -3.55781,-14.93596 -2.94754,-18.57798 l 0.61359,-3.66179 1.79129,2.69478 c 3.80607,5.72579 5.60365,18.39601 2.92529,20.61884 -1.15388,0.95763 -1.57952,0.76579 -2.38263,-1.07385 z"
           id="path4298" />
        <path
           style="fill:#2e2e2e"
           d="m 215.11942,965.33784 c -4.71429,-0.67043 -12.2915,-1.6691 -16.83826,-2.21927 -4.54675,-0.55016 -12.00257,-2.16506 -16.56849,-3.58864 l -8.30167,-2.58832 -6.8906,1.71588 c -4.01174,0.99899 -7.97142,1.44461 -9.47756,1.06659 -1.42282,-0.3571 -14.22337,-6.38419 -28.44565,-13.39351 C 107.34102,935.85465 101.21286,932.37298 94.167045,926.76933 78.7282,914.49056 78.047642,913.28377 83.232065,907.37904 c 2.19578,-2.50086 3.243769,-5.1148 4.438201,-11.06998 1.620898,-8.08144 3.001454,-10.48428 6.023764,-10.48428 2.596556,0 8.56825,9.84872 8.56825,14.13103 0,2.96147 4.60232,11.04617 8.56856,15.05206 3.85075,3.88925 15.59455,9.90539 17.86102,9.14991 3.05413,-1.01805 -0.16957,-8.47252 -13.19404,-30.50985 -1.94593,-3.29249 -4.048,-8.11208 -4.67128,-10.71018 -0.9997,-4.16719 -0.88643,-5.53792 0.96124,-11.63268 1.23286,-4.06674 4.01402,-9.78211 6.76067,-13.89341 5.78104,-8.65326 5.8971,-10.68328 0.82104,-14.36035 -4.84998,-3.51332 -10.61468,-4.62218 -13.6591,-2.6274 -2.96674,1.94388 -4.05222,5.17199 -5.32531,15.83689 -1.200197,10.0543 -2.440283,12.73407 -4.575815,9.88808 -4.131563,-5.50608 -5.325553,-9.50749 -5.997217,-20.09839 -1.016989,-16.03609 -2.930897,-18.06344 -18.250973,-19.33277 -5.376239,-0.44545 -13.981727,-0.82859 -19.123305,-0.85142 -10.556747,-0.0469 -13.032627,-0.89614 -13.032627,-4.47038 0,-2.8116 5.084846,-8.00149 10.661215,-10.88146 4.67385,-2.41386 16.31721,-6.17348 26.404018,-8.52583 14.813982,-3.45476 16.484261,-4.06255 19.52747,-7.10576 1.771961,-1.77195 4.292664,-6.29557 6.146794,-11.03091 3.67973,-9.39788 8.23145,-17.56543 13.49633,-24.21765 2.07284,-2.61905 5.76748,-8.75187 8.21033,-13.62849 2.44285,-4.87663 6.62038,-11.36032 9.2834,-14.40819 2.66303,-3.04789 7.41329,-8.57456 10.55615,-12.28152 3.14286,-3.70694 9.53061,-9.86611 14.195,-13.68704 9.5236,-7.80144 15.89152,-15.70281 18.07271,-22.42478 0.80709,-2.4873 1.69406,-9.16489 1.97104,-14.8391 0.5552,-11.37388 1.57756,-14.33478 8.11179,-23.49278 3.26252,-4.57256 8.61863,-18.07681 8.60608,-21.69832 -0.008,-2.07421 4.4467,-10.09428 6.80625,-12.25595 3.85888,-3.53525 13.65203,-8.12846 16.60567,-7.78844 l 2.72879,0.31414 -4.76496,5.25188 c -5.59147,6.16283 -12.98571,19.96642 -15.04256,28.08146 -4.33804,17.11525 -6.33743,30.3653 -6.33743,41.99834 0,14.71945 -0.72222,16.62035 -9.90439,26.06869 -3.83297,3.94409 -7.84728,8.88534 -8.92068,10.98058 -1.12813,2.20209 -8.65579,10.20591 -17.84004,18.96851 -15.41935,14.71146 -24.3247,24.65792 -27.39806,30.60113 -1.7743,3.43113 -3.64168,16.02246 -2.91537,19.65772 0.71032,3.55524 4.30969,4.58216 16.06038,4.58216 7.81259,0 11.33269,-0.49094 17.71502,-2.47068 4.38078,-1.35886 12.46505,-3.43857 17.96505,-4.62157 15.22069,-3.27383 19.53852,-5.61366 18.88262,-10.23257 -0.42318,-2.98013 -6.57696,-5.78752 -12.70705,-5.79703 -3.77589,-0.006 -6.33725,0.81935 -12.22384,3.93818 -9.21371,4.8816 -15.43898,5.40205 -19.23311,1.60791 -1.28572,-1.28571 -2.33767,-3.19937 -2.33767,-4.25257 0,-5.02338 10.81468,-12.43957 20.94032,-14.35986 7.37822,-1.39925 10.06874,-3.25025 21.28892,-14.64618 10.84696,-11.01686 12.78758,-14.0534 14.07461,-22.02277 0.42297,-2.61905 2.50004,-8.19047 4.6157,-12.38095 2.11566,-4.19048 4.70454,-10.46168 5.75306,-13.936 1.58349,-5.24697 2.62241,-6.90367 6.13364,-9.78086 4.61928,-3.78516 9.78724,-10.8364 11.23614,-15.33076 0.50659,-1.57143 1.04337,-6.92857 1.19283,-11.90476 0.23231,-7.73437 0.6903,-9.94615 3.15533,-15.23809 1.58595,-3.40476 3.8068,-6.7494 4.9352,-7.43253 1.12841,-0.68312 2.79369,-2.89945 3.70063,-4.92518 3.47167,-7.75421 20.34372,-20.97562 26.76734,-20.97562 4.14747,0 14.22298,-3.85161 15.73956,-6.01683 2.126,-3.03529 1.71867,-6.81433 -1.09487,-10.15804 -1.4414,-1.713 -2.15248,-3.3326 -1.66667,-3.79613 1.54314,-1.47239 10.85653,-3.76017 17.80836,-4.37451 8.6054,-0.76048 12.22998,0.44387 21.27328,7.06856 4.56207,3.34195 9.48892,5.89819 14.94455,7.75379 11.40917,3.88055 16.66111,6.74407 23.04921,12.56711 5.92573,5.40159 10.51546,13.8055 17.96145,32.88792 5.10886,13.09287 4.65854,15.03352 -4.4998,19.39172 -3.23413,1.53903 -7.95056,4.16105 -10.48096,5.82671 -4.24793,2.79623 -5.42161,3.0787 -15.30574,3.68362 -11.83294,0.72419 -14.53489,1.69173 -20.43349,7.31708 -7.34676,7.00641 -7.40118,16.49318 -0.15891,27.69839 5.89803,9.12539 11.1681,11.8447 28.91778,14.92137 13.03538,2.25951 17.77156,5.41167 17.77156,11.82787 0,3.13265 -1.80595,6.73469 -3.37657,6.73469 -0.21084,0 -3.52054,-1.24622 -7.35485,-2.76937 -11.0176,-4.37666 -13.99615,-4.51114 -24.61012,-1.11119 -12.19977,3.90793 -16.96978,7.57671 -20.84633,16.03361 -1.61817,3.53011 -5.04059,10.48981 -7.60538,15.466 -9.34891,18.13866 -11.61487,33.54021 -8.68745,59.04761 3.62933,31.6232 10.97307,58.84525 19.29955,71.54028 1.84928,2.81951 4.92853,7.82761 6.84277,11.1291 4.10712,7.08356 12.73387,18.10887 16.64973,21.27897 1.52327,1.23317 3.51851,3.4207 4.43388,4.86117 1.51218,2.37963 1.53046,2.82334 0.19999,4.8539 -0.80539,1.22917 -2.89039,2.75345 -4.63335,3.3873 -1.74295,0.63384 -7.45472,3.22516 -12.69282,5.75848 -5.23809,2.53332 -12.09523,5.31932 -15.23809,6.19112 -3.14286,0.8718 -9.98989,3.08631 -15.21563,4.92113 -12.97229,4.55475 -26.0222,6.44861 -37.64151,5.46273 -10.4962,-0.89058 -14.65231,-0.70197 -25.60094,1.16182 -9.41626,1.60293 -16.51325,1.58266 -28.20858,-0.0806 z M 316.8587,676.49597 c 2.91157,-2.63492 4.15045,-5.99143 4.76862,-12.91968 1.0185,-11.41505 4.99624,-15.33676 16.97575,-16.7367 8.71476,-1.0184 10.24656,-1.63458 11.36292,-4.57083 2.43831,-6.41324 -4.27533,-15.75726 -13.59409,-18.9202 -6.77418,-2.29927 -18.2188,-2.31493 -22.52152,-0.0308 -5.11924,2.71757 -17.68325,15.34648 -20.60109,20.70752 -3.96189,7.27931 -4.42493,15.98627 -1.22218,22.98201 3.73892,8.16687 11.12535,12.61032 19.2579,11.58494 2.08156,-0.26245 4.58972,-1.20576 5.57369,-2.09626 z M 74.242205,957.70286 c -8.782379,-7.65952 -12.157952,-13.33558 -9.066854,-15.24598 2.485887,-1.53636 21.345262,16.03214 20.721718,19.30338 -0.691964,3.63018 -4.267567,2.38541 -11.654864,-4.0574 z"
           id="path4296" />
        <path
           style="fill:#070707"
           d="m 225.59561,963.31134 c -1.57143,-0.22955 -6.07143,-1.01181 -10,-1.73835 -3.92857,-0.72655 -10.55535,-1.59323 -14.72618,-1.92598 -8.51061,-0.67899 -16.44476,-3.0598 -24.55953,-7.36963 -5.51584,-2.92952 -6.88738,-5.11886 -3.80953,-6.081 2.52233,-0.78849 7.21526,-3.43418 8.70506,-4.90757 0.72826,-0.72024 2.3354,-1.97215 3.57143,-2.78202 1.23603,-0.80988 2.24732,-1.99532 2.24732,-2.63431 0,-1.72993 -9.27497,-16.75594 -12.37466,-20.0477 -1.47975,-1.57143 -3.36115,-4.4901 -4.18089,-6.48594 -0.81974,-1.99585 -3.52625,-6.01175 -6.01447,-8.92425 l -4.52403,-5.29543 -0.53735,-10.12338 c -0.43873,-8.26564 -1.01121,-11.14944 -3.11963,-15.71465 -2.88864,-6.2546 -3.17796,-8.82414 -1.30355,-11.57777 1.6682,-2.4507 3.47943,-9.82772 2.82907,-11.52256 -0.27962,-0.72866 -1.6397,-1.55491 -3.02239,-1.83611 -1.3827,-0.2812 -4.06372,-0.92035 -5.95783,-1.42035 -1.8941,-0.49999 -4.21762,-0.90908 -5.16337,-0.90908 -1.73887,0 -8.73836,-2.56049 -20.91661,-7.6515 -10.57076,-4.41903 -14.82733,-5.04079 -22.07151,-3.22402 l -6.187009,1.55163 -2.537406,-2.35762 c -6.21736,-5.77685 -6.741869,-5.90151 -26.987544,-6.41373 -16.204729,-0.40998 -19.051417,-0.70647 -20.47466,-2.13247 -1.569252,-1.57231 -1.556584,-1.78963 0.249842,-4.28572 2.751681,-3.80223 10.68962,-7.41869 23.592808,-10.74869 9.553344,-2.46549 13.599293,-2.98387 26.190475,-3.35559 15.536214,-0.45867 22.529734,-1.33104 43.939294,-5.48103 28.83962,-5.59022 44.46312,-8.31066 47.61904,-8.29166 5.83859,0.0352 10.05904,1.80638 14.66012,6.15252 5.03392,4.75499 9.48912,5.97173 18.04487,4.92818 5.4164,-0.66064 15.33254,-3.57947 19.42839,-5.71877 6.45648,-3.37228 10.72376,-10.70688 10.72376,-18.43198 0,-5.78278 -2.44455,-10.43612 -7.28634,-13.86995 -3.64119,-2.58236 -24.4914,-10.1934 -27.92449,-10.1934 -2.68713,0 -4.31045,-2.59238 -3.28634,-5.24814 1.16851,-3.03023 11.1873,-13.36955 15.73993,-16.2435 1.99525,-1.25954 4.11284,-3.19652 4.70576,-4.30441 0.82722,-1.54568 1.74208,-1.91687 3.9322,-1.59542 2.33603,0.34286 3.01222,0.003 3.72481,-1.8711 0.47886,-1.2595 0.87066,-3.80348 0.87066,-5.65329 0,-2.58761 0.90459,-4.38541 3.92226,-7.79514 5.88169,-6.64588 15.78654,-27.83692 17.07562,-36.53265 0.5664,-3.82075 1.44726,-9.73254 1.95746,-13.1373 0.97045,-6.47608 3.97069,-16.55187 6.20193,-20.82808 0.71895,-1.37789 1.30983,-3.09452 1.31305,-3.81473 0.003,-0.72022 1.13705,-3.83009 2.5196,-6.91082 2.54855,-5.67891 4.17391,-7.22851 16.72127,-15.94179 8.49186,-5.89701 16.00309,-16.97885 16.00309,-23.61045 0,-2.10284 0.59771,-3.43271 1.84216,-4.09871 2.83275,-1.51605 8.83057,-1.16176 11.60995,0.68579 5.51058,3.66308 8.12499,5.4921 11.3098,7.91226 1.83333,1.39317 6.7619,3.48269 10.95238,4.64338 17.7404,4.9138 28.71135,13.71288 32.34231,25.93966 0.75329,2.5366 2.02102,5.78674 2.81717,7.22251 4.45607,8.03605 7.96834,19.72569 6.52736,21.72458 -0.40395,0.56035 -3.19875,2.38178 -6.21065,4.04762 -16.42731,9.08564 -14.80903,8.50687 -25.05945,8.96246 -8.9291,0.39687 -10.03915,0.67527 -16.26221,4.07853 -3.76497,2.05899 -7.33052,3.40256 -8.17238,3.0795 -2.42841,-0.93186 -3.16271,-10.81645 -1.17295,-15.78934 2.34982,-5.87278 5.55441,-7.27455 15.87406,-6.94372 7.7562,0.24865 8.45843,0.11004 10.67556,-2.10708 3.32346,-3.32347 3.81642,-6.34228 2.03586,-12.4672 -2.82602,-9.72115 -9.49893,-14.58452 -22.99111,-16.75643 -13.2965,-2.1404 -19.62274,0.326 -31.08454,12.11891 -11.92609,12.27061 -15.59371,21.49642 -12.72227,32.00253 3.54318,12.96384 9.43841,17.52073 24.01972,18.56676 l 9.26722,0.66481 0.6521,2.85714 c 0.35866,1.57143 1.16287,5.3094 1.78713,8.3066 1.5245,7.3193 9.01047,18.80133 14.53586,22.2952 2.25147,1.42367 5.80787,3.23747 7.90311,4.03066 2.09524,0.7932 5.01243,2.26475 6.48265,3.27012 2.49311,1.70485 2.56905,1.94293 1.12771,3.53558 -0.84997,0.93921 -5.91001,3.08091 -11.24454,4.75933 -15.34833,4.8291 -18.91625,7.42432 -21.59451,15.70727 -0.6775,2.09524 -3.86173,8.95238 -7.0761,15.23809 -10.65765,20.84115 -12.43377,28.02436 -12.36294,50 0.11033,34.22902 10.39359,71.62668 25.04838,91.09471 1.91259,2.54076 4.61032,6.56515 5.99497,8.94309 1.38465,2.37794 5.98086,8.24328 10.21382,13.03409 4.23295,4.79082 7.67807,9.27381 7.65582,9.9622 -0.0482,1.4915 -22.01795,12.40336 -29.48335,14.64369 -2.88095,0.86457 -9.09524,3.0413 -13.80952,4.83719 -11.577,4.41019 -19.79484,5.44551 -37.61905,4.73941 -12.79716,-0.50695 -15.77596,-0.33436 -22.38095,1.29679 -8.27349,2.04319 -16.44171,2.92763 -20.95238,2.26872 z m -75.82394,-11.63587 c -1.24921,-0.97259 -4.19987,-2.69263 -6.55701,-3.8223 -2.35714,-1.12968 -5.35714,-2.67623 -6.66666,-3.43678 -1.30953,-0.76056 -3.63502,-1.93338 -5.16778,-2.60627 -4.20593,-1.84644 -4.49871,-4.05321 -0.43623,-3.28802 1.77268,0.33391 7.50877,1.39874 12.74686,2.36632 9.30234,1.71831 17.40121,4.75973 19.54142,7.33853 0.7812,0.94128 0.78521,1.81204 0.0149,3.25124 -1.43564,2.6825 -10.12021,2.80965 -13.47557,0.19728 z M 118.45276,934.8724 c -1.30953,-0.74859 -3.2381,-1.37736 -4.28572,-1.39728 -1.04762,-0.0199 -4.32345,-1.49469 -7.27964,-3.27732 -6.16382,-3.71687 -19.812963,-14.56248 -20.46491,-16.26142 -0.579205,-1.50939 4.404924,-9.06398 5.979944,-9.06398 0.676706,0 3.360526,3.10714 5.964039,6.90476 4.934347,7.19747 16.414377,18.30667 21.790867,21.08696 1.71578,0.88726 2.86601,2.02353 2.55607,2.52503 -0.73954,1.19658 -1.40459,1.11592 -4.26065,-0.51675 z m -9.08108,-156.72079 c -1.29974,-2.10303 0.69368,-5.63453 6.75489,-11.96676 4.73779,-4.94963 6.11525,-5.96865 5.63627,-4.16959 -2.82644,10.61638 -3.74099,13.1225 -5.47385,15 -2.06819,2.24081 -5.85068,2.86218 -6.91731,1.13635 z m 14.79536,-20.96754 c 0,-0.80928 0.62923,-2.30333 1.39829,-3.32011 0.76905,-1.01678 1.42132,-2.92012 1.44948,-4.22965 0.0777,-3.61578 3.06975,-9.48168 7.5329,-14.76855 17.03618,-20.18034 18.58434,-21.64565 33.27545,-31.49457 5.44797,-3.65232 6.41843,-3.67992 5.53434,-0.1574 -1.11816,4.45512 -6.5198,10.99157 -21.83356,26.42052 -8.57834,8.64286 -18.24295,18.70834 -21.47694,22.36774 -3.23398,3.65939 -5.87996,5.9913 -5.87996,5.18202 z m 245.56441,-25.62089 c -3.29069,-0.99411 -8.42156,-4.03512 -8.42156,-4.99135 0,-0.41087 1.90467,-0.74704 4.23261,-0.74704 4.60331,0 10.02179,3.45347 8.72094,5.5583 -0.76857,1.24356 -0.98346,1.2521 -4.53199,0.18009 z m -194.5935,-34.07545 c 3.39447,-8.11456 6.17195,-22.19716 6.17195,-31.2936 0,-4.33431 3.04364,-11.79791 4.81115,-11.79791 1.79637,0 1.90539,2.42893 0.45031,10.03304 -0.79839,4.17231 -1.45874,11.44315 -1.46744,16.15744 -0.0188,10.14538 -2.13824,15.04048 -7.46591,17.24288 -2.94899,1.21909 -3.142,1.1927 -2.50006,-0.34185 z"
           id="path4294" />
      </g>
    </g>
  </g>
</svg>
